<svg width="22" height="14" viewBox="0 0 22 14" fill="none" xmlns="http://www.w3.org/2000/svg">
<path d="M21.7527 2.0147L20.3675 13.2975C20.3183 13.6986 19.9776 14 19.5735 14H2.42654C2.02241 14 1.68175 13.6986 1.6325 13.2975L0.24734 2.0147C0.15886 1.29399 0.998988 0.837654 1.5554 1.3042L4.98598 4.18076C5.28332 4.43007 5.71668 4.43007 6.01402 4.18076L10.486 0.431003C10.7833 0.181691 11.2167 0.181691 11.514 0.431003L15.986 4.18076C16.2833 4.43007 16.7167 4.43007 17.014 4.18076L20.4446 1.3042C21.001 0.837654 21.8411 1.29399 21.7527 2.0147Z" fill="url(#paint0_linear)"/>
<defs>
<linearGradient id="paint0_linear" x1="11" y1="0" x2="11" y2="14" gradientUnits="userSpaceOnUse">
<stop stop-color="#FEA800"/>
<stop offset="1" stop-color="#FFCB65"/>
</linearGradient>
</defs>
</svg>
